<svg xmlns="http://www.w3.org/2000/svg" viewBox="0 0 100 100" height="100mm" width="100mm">
  <circle r="43.745" cy="50" cx="50" style="opacity:1;fill:#2c424a;fill-opacity:1;fill-rule:nonzero;stroke:none;stroke-width:1.80246913;stroke-linecap:round;stroke-linejoin:miter;stroke-miterlimit:4;stroke-dasharray:none;stroke-opacity:1;paint-order:markers fill stroke"/>
  <circle r="37.804" cy="50" cx="50" style="opacity:1;fill:#b3b3b3;fill-opacity:1;fill-rule:nonzero;stroke:none;stroke-width:1.55768943;stroke-linecap:round;stroke-linejoin:miter;stroke-miterlimit:4;stroke-dasharray:none;stroke-opacity:1;paint-order:markers fill stroke"/>
  <rect style="opacity:1;fill:#e16958;fill-opacity:1;fill-rule:nonzero;stroke:none;stroke-width:.22606182;stroke-linecap:square;stroke-linejoin:miter;stroke-miterlimit:4;stroke-dasharray:none;stroke-opacity:1;paint-order:stroke fill markers" width="22" height="50" x="38.774" y="-100" ry="0" transform="rotate(90)"/>
  <rect style="opacity:1;fill:#2c424a;fill-opacity:1;fill-rule:nonzero;stroke:none;stroke-width:.22606182;stroke-linecap:square;stroke-linejoin:miter;stroke-miterlimit:4;stroke-dasharray:none;stroke-opacity:1;paint-order:stroke fill markers" width="22" height="50" x="38.774" y="-50" ry="0" transform="rotate(90)"/>
  <g style="font-style:normal;font-weight:400;font-size:10.17271423px;line-height:1.25;font-family:sans-serif;letter-spacing:0;word-spacing:0;fill:#fff;fill-opacity:1;stroke:none;stroke-width:.25431785" aria-label="MEGA">
    <g aria-label="TEXT" style="font-style:normal;font-variant:normal;font-weight:400;font-stretch:normal;font-size:4.23333311px;line-height:1.25;font-family:sans-serif;-inkscape-font-specification:'sans-serif, Normal';font-variant-ligatures:normal;font-variant-caps:normal;font-variant-numeric:normal;font-feature-settings:normal;text-align:start;letter-spacing:0;word-spacing:0;writing-mode:lr-tb;text-anchor:start;fill:#fff;fill-opacity:1;stroke:none;stroke-width:.06728826">
      <path d="M-18.394 14.47v-.699h3.436l-.211.699h-1.228v2.588h-.785V14.47zM-13.817 15.768v.591h2.398l-.211.699H-14.6V13.77h3.18l-.211.699h-2.187v.6h2.038v.698zM-9.32 14.999l1.038-1.228h.91l-1.38 1.625 1.421 1.662h-.91l-1.078-1.274-1.08 1.274h-.909l1.422-1.662-1.38-1.625h.91zM-7.318 14.47v-.699h3.435l-.21.699h-1.229v2.588h-.785V14.47z" style="font-style:normal;font-variant:normal;font-weight:400;font-stretch:normal;font-family:'a Atmospheric';-inkscape-font-specification:'a Atmospheric';fill:#fff;stroke-width:.06728826" transform="matrix(3.07745 0 0 3.07745 59.278 2.337)"/>
    </g>
  </g>
  <g style="font-style:normal;font-weight:400;font-size:10.17271423px;line-height:1.25;font-family:sans-serif;letter-spacing:0;word-spacing:0;fill:#fff;fill-opacity:1;stroke:none;stroke-width:.25431785" aria-label="MEGA">
    <g aria-label="HERE" style="font-style:normal;font-variant:normal;font-weight:400;font-stretch:normal;font-size:4.23333311px;line-height:1.25;font-family:sans-serif;-inkscape-font-specification:'sans-serif, Normal';font-variant-ligatures:normal;font-variant-caps:normal;font-variant-numeric:normal;font-feature-settings:normal;text-align:start;letter-spacing:0;word-spacing:0;writing-mode:lr-tb;text-anchor:start;fill:#fff;fill-opacity:1;stroke:none;stroke-width:.06728826">
      <path d="m-16.148 14.914.781-.21v1.463h1.72v-1.381h.781v3.287h-.78v-1.208h-1.72v1.208h-.782zM-11.448 16.783v.59h2.398l-.21.7h-2.969v-3.287h3.18l-.212.699h-2.187v.6h2.039v.698zM-8.583 15.968l.782-.21v.578H-6.4q.232 0 .323-.231.037-.095.037-.199 0-.252-.17-.368-.086-.053-.19-.053h-2.183l.211-.699h1.98q.608 0 .943.442.236.315.236.716 0 .48-.323.79-.17.16-.397.235l.815 1.104h-.922l-.715-1.038h-1.046v1.038h-.782zM-3.99 16.783v.59h2.398l-.21.7h-2.969v-3.287h3.18l-.212.699H-3.99v.6h2.039v.698z" style="font-style:normal;font-variant:normal;font-weight:400;font-stretch:normal;font-family:'a Atmospheric';-inkscape-font-specification:'a Atmospheric';fill:#fff;stroke-width:.06728826" transform="matrix(3.07745 0 0 3.07745 102.297 -.66)"/>
    </g>
  </g>
</svg>
